#!OML:ASF F:\VICON\USERDATA\INSTALL\rory3\rory3.ASF
:FULLY-SPECIFIED
:DEGREES


316
root 0.335125 17.7509 30.0345 -1.19057 -3.06064 -7.17617
lowerback 8.64722 1.94759 6.87847
upperback 0.789664 3.34471 2.34779
thorax -3.77667 1.56379 -1.79907
lowerneck -15.4081 -3.15913 -1.88705
upperneck 19.687 -4.14019 1.06478
head 8.75748 -1.97286 0.175831
rclavicle -3.99806e-014 -1.05356e-014
rhumerus -18.7013 -7.2162 -82.5413
rradius 32.9789
rwrist -1.7758
rhand -18.7155 24.3956
rfingers 7.12502
rthumb 7.57972 -5.44859
lclavicle -3.99806e-014 -1.05356e-014
lhumerus -34.4072 10.6515 78.0903
lradius 20.9188
lwrist 3.10541
lhand -31.8816 21.3929
lfingers 7.12502
lthumb -5.13444 51.3106
rfemur 4.07589 6.52174 35.9199
rtibia 25.4725
rfoot -20.8131 -7.84181
rtoes 8.76956
lfemur -28.352 -1.83822 -10.2139
ltibia 24.7676
lfoot -6.34966 7.1685
ltoes -6.60137
317
root 0.345048 17.7326 30.217 -1.07571 -3.23967 -7.48415
lowerback 8.50119 2.00331 7.14594
upperback 0.86474 3.42885 2.44258
thorax -3.60024 1.60922 -1.84887
lowerneck -15.4924 -3.14401 -1.87136
upperneck 19.5057 -4.11185 1.03668
head 8.7095 -1.96167 0.167281
rclavicle 4.67889e-014 1.78906e-014
rhumerus -18.1791 -7.10385 -82.5441
rradius 33.1872
rwrist -2.02707
rhand -18.9374 24.1602
rfingers 7.12502
rthumb 7.36556 -5.6916
lclavicle 4.67889e-014 1.78906e-014
lhumerus -34.5073 11.5662 77.631
lradius 20.4267
lwrist 1.82519
lhand -29.138 33.1415
lfingers 7.12502
lthumb -2.48501 63.1067
rfemur 4.88534 6.55571 36.2734
rtibia 24.9554
rfoot -20.8409 -7.9619
rtoes 8.52102
lfemur -27.9821 -3.06967 -9.28913
ltibia 21.6347
lfoot -6.55195 7.94232
ltoes -5.10041
318
root 0.353529 17.7076 30.3993 -0.996327 -3.68682 -8.13019
lowerback 8.6033 2.1335 7.72456
upperback 0.775606 3.67943 2.63316
thorax -3.7076 1.71931 -2.00325
lowerneck -15.1383 -3.15772 -2.00885
upperneck 19.3296 -4.11906 1.12128
head 8.59065 -1.96948 0.224551
rclavicle 4.46644e-014 -7.25564e-015
rhumerus -17.9471 -7.04448 -82.4743
rradius 33.3062
rwrist -2.26336
rhand -19.1393 24.1376
rfingers 7.12502
rthumb 7.17066 -5.72094
lclavicle 4.46644e-014 -7.25564e-015
lhumerus -34.9233 12.016 77.351
lradius 19.724
lwrist 1.41924
lhand -28.9846 37.4233
lfingers 7.12502
lthumb -2.33679 67.3903
rfemur 5.78124 6.73358 36.9987
rtibia 24.5223
rfoot -20.9475 -8.20778
rtoes 7.35996
lfemur -27.5511 -4.04276 -7.94925
ltibia 18.729
lfoot -6.50193 8.77544
ltoes -6.12117
319
root 0.368648 17.683 30.5894 -0.945367 -3.95803 -8.29487
lowerback 8.65184 2.18747 7.92721
upperback 0.724631 3.77869 2.63313
thorax -3.76675 1.76157 -2.12892
lowerneck -14.994 -3.11306 -1.94495
upperneck 19.3702 -4.07615 1.11962
head 8.57607 -1.94559 0.220632
rclavicle -2.98177e-016 -9.93923e-017
rhumerus -17.5318 -6.85487 -82.5448
rradius 33.0992
rwrist -2.56745
rhand -19.2335 24.5545
rfingers 7.12502
rthumb 7.07976 -5.30709
lclavicle -2.98177e-016 -9.93923e-017
lhumerus -35.3178 12.5169 76.9447
lradius 19.2156
lwrist 0.968808
lhand -29.2309 36.6294
lfingers 7.12502
lthumb -2.57475 66.5936
rfemur 6.64078 6.71758 37.1169
rtibia 24.3149
rfoot -21.1933 -8.11624
rtoes 5.35089
lfemur -27.0261 -5.29789 -7.16569
ltibia 16.007
lfoot -6.39319 9.84867
ltoes -6.92139
320
root 0.384486 17.6574 30.773 -0.736168 -3.98566 -7.8424
lowerback 8.4807 2.20243 7.47103
upperback 0.627314 3.73804 2.46893
thorax -3.79388 1.74522 -2.03796
lowerneck -14.9939 -3.05751 -1.74475
upperneck 19.5259 -4.03583 1.05021
head 8.62215 -1.91844 0.168032
rclavicle 5.72127e-015 -2.13694e-014
rhumerus -17.2614 -6.90428 -82.6116
rradius 32.9301
rwrist -2.64736
rhand -19.3658 25.2045
rfingers 7.12502
rthumb 6.95203 -4.66131
lclavicle 5.72127e-015 -2.13694e-014
lhumerus -35.7026 12.8401 76.6967
lradius 18.8485
lwrist 1.24688
lhand -30.2235 34.3368
lfingers 7.12502
lthumb -3.53325 64.2872
rfemur 7.09779 6.69548 36.5185
rtibia 24.3432
rfoot -21.5418 -7.62257
rtoes 3.70468
lfemur -26.6875 -6.61837 -7.11438
ltibia 13.4299
lfoot -6.2287 10.8213
ltoes -6.49067
321
root 0.400026 17.637 30.951 -0.532178 -4.1589 -7.26528
lowerback 8.27314 2.31785 6.9041
upperback 0.609718 3.81174 2.26614
thorax -3.71138 1.79273 -1.93287
lowerneck -14.8863 -3.07704 -1.63764
upperneck 19.2976 -4.09388 1.08415
head 8.52438 -1.93628 0.158444
rclavicle 1.20016e-014 -1.81888e-014
rhumerus -17.0083 -7.22158 -82.6283
rradius 33.0395
rwrist -2.78161
rhand -19.3135 25.1387
rfingers 7.12502
rthumb 7.00256 -4.72549
lclavicle 1.20016e-014 -1.81888e-014
lhumerus -35.885 13.1526 76.5079
lradius 18.3538
lwrist 1.37924
lhand -31.5603 31.912
lfingers 7.12502
lthumb -4.82413 61.8371
rfemur 7.41419 6.88194 35.8184
rtibia 24.555
rfoot -21.7357 -7.22319
rtoes 2.67031
lfemur -26.2853 -7.79432 -7.20895
ltibia 11.1339
lfoot -6.36386 11.9004
ltoes -6.89929
322
root 0.419922 17.6182 31.1355 -0.444852 -4.30283 -7.19093
lowerback 8.28947 2.40076 6.9468
upperback 0.6074 3.92362 2.17871
thorax -3.70474 1.84694 -2.05915
lowerneck -14.9399 -3.19724 -1.60604
upperneck 19.1199 -4.26859 1.10736
head 8.47625 -2.01459 0.141002
rclavicle -1.30639e-014 -7.15625e-015
rhumerus -16.7894 -7.59511 -82.618
rradius 33.3973
rwrist -2.73278
rhand -19.2117 24.567
rfingers 7.12502
rthumb 7.10077 -5.29385
lclavicle -1.30639e-014 -7.15625e-015
lhumerus -35.9549 13.5336 76.1781
lradius 17.8643
lwrist 0.283351
lhand -30.6442 32.4663
lfingers 7.12502
lthumb -3.93956 62.4097
rfemur 7.81877 6.91505 35.6264
rtibia 24.8845
rfoot -21.8834 -6.8915
rtoes 2.03538
lfemur -25.6398 -6.99059 -7.68958
ltibia 9.24099
lfoot -7.15536 10.8431
ltoes -6.85094
323
root 0.440965 17.5951 31.327 -0.42701 -4.33225 -7.48515
lowerback 8.31417 2.39714 7.39696
upperback 0.618021 3.96148 2.17872
thorax -3.67449 1.85938 -2.31216
lowerneck -15.1627 -3.26575 -1.66693
upperneck 19.3142 -4.38707 1.28002
head 8.58983 -2.05382 0.189432
rclavicle -1.42752e-014 1.12313e-014
rhumerus -16.5955 -7.8981 -82.6643
rradius 33.6591
rwrist -2.53892
rhand -19.2141 24.3101
rfingers 7.12502
rthumb 7.09846 -5.5509
lclavicle -1.42752e-014 1.12313e-014
lhumerus -36.1285 14.076 75.6952
lradius 17.3215
lwrist -1.02402
lhand -29.5026 32.2366
lfingers 7.12502
lthumb -2.8371 62.1975
rfemur 8.30283 6.75391 35.8081
rtibia 25.2815
rfoot -21.9716 -6.3765
rtoes 1.44324
lfemur -25.111 -6.28723 -7.73956
ltibia 8.05783
lfoot -7.60639 9.89314
ltoes -5.88964
324
root 0.458575 17.5763 31.5214 -0.421669 -4.4115 -7.36152
lowerback 8.37905 2.39738 7.27268
upperback 0.557097 3.95941 2.15033
thorax -3.78106 1.85502 -2.2783
lowerneck -15.2516 -3.24821 -1.80948
upperneck 19.5532 -4.35574 1.38883
head 8.69281 -2.03582 0.249782
rclavicle -3.15633e-014 -5.06901e-015
rhumerus -16.4313 -8.01073 -82.6831
rradius 33.627
rwrist -2.58104
rhand -19.2373 24.0274
rfingers 7.12502
rthumb 7.07605 -5.8343
lclavicle -3.15633e-014 -5.06901e-015
lhumerus -36.6876 15.0715 75.0216
lradius 16.9071
lwrist -2.20076
lhand -29.3106 29.8714
lfingers 7.12502
lthumb -2.65172 59.8346
rfemur 8.79836 6.83634 35.6147
rtibia 25.7027
rfoot -21.8368 -6.11952
rtoes 0.845058
lfemur -25.0318 -5.56356 -8.27712
ltibia 8.12903
lfoot -7.47188 8.8436
ltoes -4.06408
325
root 0.479609 17.5651 31.7157 -0.274218 -4.45302 -7.02108
lowerback 8.36525 2.41645 6.9557
upperback 0.397239 3.96082 2.06965
thorax -3.95588 1.85137 -2.19137
lowerneck -15.1531 -3.28646 -1.9591
upperneck 19.6313 -4.38137 1.41562
head 8.70628 -2.05651 0.28132
rclavicle -3.65267e-015 -1.98785e-016
rhumerus -16.4542 -8.10697 -82.6286
rradius 33.5041
rwrist -2.64525
rhand -19.1697 24.1115
rfingers 7.12502
rthumb 7.14134 -5.74806
lclavicle -3.65267e-015 -1.98785e-016
lhumerus -37.295 15.8239 74.5438
lradius 16.6774
lwrist -2.91829
lhand -29.7676 28.2787
lfingers 7.12502
lthumb -3.09307 58.236
rfemur 9.01817 6.87779 35.1166
rtibia 26.1956
rfoot -21.4885 -5.98681
rtoes -0.1531
lfemur -25.5045 -4.88428 -9.09722
ltibia 9.27841
lfoot -6.87697 7.78793
ltoes -3.77098
326
root 0.503082 17.5486 31.91 -0.125334 -4.44048 -6.80206
lowerback 8.26241 2.42787 6.83316
upperback 0.317257 3.95626 1.97789
thorax -3.98381 1.84828 -2.21523
lowerneck -15.2543 -3.35134 -2.11988
upperneck 19.7253 -4.45983 1.54073
head 8.76531 -2.09068 0.337973
rclavicle -1.51635e-014 -1.27222e-014
rhumerus -16.5374 -8.28799 -82.6119
rradius 33.6424
rwrist -2.73008
rhand -19.4192 24.2734
rfingers 7.12502
rthumb 6.9005 -5.59412
lclavicle -1.51635e-014 -1.27222e-014
lhumerus -37.4698 15.9356 74.5369
lradius 16.5089
lwrist -2.68103
lhand -30.4078 29.655
lfingers 7.12502
lthumb -3.71123 59.6024
rfemur 9.18473 6.93413 34.7749
rtibia 26.8346
rfoot -21.1984 -5.96739
rtoes -2.05171
lfemur -26.0719 -4.26623 -9.80351
ltibia 10.7769
lfoot -6.75662 6.70659
ltoes -4.46358
327
root 0.519979 17.5254 32.1074 -0.241693 -4.40353 -6.78963
lowerback 8.29336 2.41057 6.81426
upperback 0.381166 3.93099 1.99209
thorax -3.93857 1.83906 -2.18725
lowerneck -15.2478 -3.33939 -2.08457
upperneck 19.6065 -4.42879 1.44872
head 8.71984 -2.08405 0.305909
rclavicle 6.30272e-014 1.96797e-014
rhumerus -16.4386 -8.6555 -82.6077
rradius 33.6184
rwrist -2.55198
rhand -19.5801 24.5089
rfingers 7.12502
rthumb 6.74516 -5.36361
lclavicle 6.30272e-014 1.96797e-014
lhumerus -37.5706 15.896 74.6968
lradius 16.5103
lwrist -2.51876
lhand -30.3173 32.709
lfingers 7.12502
lthumb -3.62384 62.6579
rfemur 9.67085 7.04667 34.7903
rtibia 27.5746
rfoot -21.0813 -5.89169
rtoes -2.98156
lfemur -26.3773 -3.60788 -10.3517
ltibia 12.4805
lfoot -6.08508 5.85793
ltoes -5.8061
328
root 0.538438 17.5037 32.3146 -0.397863 -4.2944 -6.80321
lowerback 8.18875 2.36739 6.78396
upperback 0.560631 3.85293 2.04928
thorax -3.7045 1.81303 -2.09234
lowerneck -15.544 -3.31048 -1.90015
upperneck 19.6718 -4.3598 1.13398
head 8.78245 -2.06884 0.172369
rclavicle -3.7502e-014 -1.35174e-014
rhumerus -16.1274 -9.01856 -82.569
rradius 33.4024
rwrist -2.29487
rhand -19.4617 24.8098
rfingers 7.12502
rthumb 6.85946 -5.05909
lclavicle -3.7502e-014 -1.35174e-014
lhumerus -37.8574 16.835 74.2429
lradius 16.2546
lwrist -3.34094
lhand -30.309 29.8569
lfingers 7.12502
lthumb -3.61587 59.806
rfemur 10.1924 7.00252 34.8095
rtibia 28.2812
rfoot -20.7854 -5.70236
rtoes -3.67931
lfemur -26.7565 -3.14416 -10.8369
ltibia 14.5802
lfoot -6.45051 5.14761
ltoes -6.37382
